<svg width="229" height="54" viewBox="0 0 229 54" fill="none" xmlns="http://www.w3.org/2000/svg">
  <path d="M195.17 22.5425V0H219.023C224.427 0 227.017 2.07839 227.017 6.23516C227.017 9.43267 225.354 11.3832 222.093 12.0227V12.2785C225.674 12.5343 227.241 14.133 227.241 17.4265V19.6327V22.5425H218.672V20.2722V18.7055C218.672 16.4352 217.553 15.5399 214.899 15.5399H203.515V22.5425H195.17ZM218.288 7.73799C218.288 5.88343 217.297 5.0201 215.282 5.0201H203.515V10.5198H215.186C217.265 10.5198 218.288 9.59255 218.288 7.73799Z" fill="white"/>
  <path d="M157.721 22.5425V0H157.753H187.426V5.0201H166.098V8.66527H187.01V13.4935H166.098V17.5224H187.426V22.5425H157.753H157.721Z" fill="white"/>
  <path d="M117.778 22.5425V0H126.155V7.92984H142.015V0H150.392V22.5425H142.015V13.7493H126.155V22.5425H117.778Z" fill="white"/>
  <path d="M91.5197 22.5425V6.39503H79.1453V0H112.272V6.39503H99.8972V22.5425H91.5197Z" fill="white"/>
  <path d="M43.0392 22.5425V16.787H53.1433V5.75553H43.0392V0H71.6249V5.75553H61.5208V16.787H71.6249V22.5425H43.0392Z" fill="white"/>
  <path d="M2.68025 22.5425V0H22.281C31.8736 0 36.3501 3.58122 36.3501 11.2233C36.3501 18.9613 31.8736 22.5425 22.281 22.5425H2.68025ZM20.4265 17.1067C25.5105 17.1067 27.5889 15.3481 27.5889 11.2233C27.5889 7.16244 25.4785 5.43578 20.4265 5.43578H11.0577V17.1067H20.4265Z" fill="white"/>
  <path d="M194.472 53.1077V30.5652H214.073C223.665 30.5652 228.142 34.1465 228.142 41.7885C228.142 49.5265 223.665 53.1077 214.073 53.1077H194.472ZM212.218 47.672C217.302 47.672 219.381 45.9133 219.381 41.7885C219.381 37.7277 217.27 36.001 212.218 36.001H202.85V47.672H212.218Z" fill="white"/>
  <path d="M156.703 53.1077V30.5652H180.557C185.961 30.5652 188.55 32.6436 188.55 36.8004C188.55 39.9979 186.888 41.9484 183.626 42.5879V42.8437C187.208 43.0995 188.774 44.6983 188.774 47.9917V50.198V53.1077H180.205V50.8375V49.2707C180.205 47.0005 179.086 46.1052 176.432 46.1052H165.049V53.1077H156.703ZM179.821 38.3032C179.821 36.4487 178.83 35.5853 176.816 35.5853H165.049V41.0851H176.72C178.798 41.0851 179.821 40.1578 179.821 38.3032Z" fill="white"/>
  <path d="M115.417 53.1077L127.504 30.5652H140.486L152.572 53.1077H143.683L141.733 49.4306H126.257L124.306 53.1077H115.417ZM129.134 44.0907H138.855L137.384 41.3089C136.233 39.0706 135.082 36.8963 134.123 34.9458H133.867C132.907 36.8963 131.724 39.1346 130.605 41.3089L129.134 44.0907Z" fill="white"/>
  <path d="M80.1422 53.1077V47.0644L98.6559 36.1289V35.9051C96.8972 36.1289 95.0427 36.1929 93.0602 36.1929H80.6219V30.5652H110.391V36.6086L91.9091 47.5441V47.7679C93.6677 47.5441 95.4903 47.4801 97.5047 47.4801H111.254V53.1077H80.1422Z" fill="white"/>
  <path d="M42.9489 53.1077V47.3522H53.053V36.3208H42.9489V30.5652H71.5347V36.3208H61.4305V47.3522H71.5347V53.1077H42.9489Z" fill="white"/>
  <path d="M4.2527 53.1077L0 30.5652H7.70601L9.49662 40.5415C9.88032 43.0356 10.2001 45.9453 10.3919 48.2155H10.6797C10.9995 45.7534 11.5111 42.9077 11.9267 40.7973L14.0691 30.5652H23.6616L25.804 40.7973C26.2196 42.8757 26.7312 45.7534 27.051 48.2155H27.3388C27.5306 45.9133 27.8504 43.0675 28.2341 40.5415L30.0247 30.5652H37.7307L33.478 53.1077H21.9669L19.9525 41.6926C19.5688 39.4863 19.2171 37.2161 19.0252 35.5214H18.7055C18.5136 37.2161 18.1299 39.5183 17.7782 41.6926L15.7638 53.1077H4.2527Z" fill="white"/>
</svg>
